<svg width="21" height="24" viewBox="0 0 21 24" fill="none" xmlns="http://www.w3.org/2000/svg">
<path d="M15.7559 5.99999H19.6559C19.7054 6.00008 19.7538 5.98546 19.795 5.958C19.8362 5.93053 19.8683 5.89146 19.8873 5.84572C19.9062 5.79998 19.9112 5.74965 19.9015 5.70109C19.8918 5.65254 19.8679 5.60795 19.8329 5.57299L14.6829 0.426988C14.6481 0.392167 14.6039 0.36836 14.5557 0.358545C14.5075 0.348731 14.4575 0.353345 14.412 0.37181C14.3664 0.390276 14.3273 0.421772 14.2995 0.462358C14.2717 0.502944 14.2566 0.550818 14.2559 0.599988V4.49999C14.2559 4.89781 14.4139 5.27934 14.6952 5.56065C14.9765 5.84195 15.358 5.99999 15.7559 5.99999Z" fill="#3434FF"/>
<path d="M10.9076 14.3268C10.3501 14.8306 9.91616 15.4561 9.63963 16.1548C9.62939 16.1788 9.62525 16.205 9.62759 16.231C9.62993 16.257 9.63867 16.282 9.65303 16.3037C9.66739 16.3255 9.68693 16.3434 9.70989 16.3558C9.73285 16.3682 9.75853 16.3747 9.78463 16.3748H10.8676C10.9339 16.3748 10.9975 16.3485 11.0444 16.3016C11.0913 16.2547 11.1176 16.1911 11.1176 16.1248V14.4248C11.1176 14.2468 10.9756 14.2648 10.9076 14.3268V14.3268Z" fill="#3434FF"/>
<path d="M20.0059 7H15.7559C15.0928 7 14.4569 6.73661 13.9881 6.26777C13.5193 5.79893 13.2559 5.16304 13.2559 4.5V0.25C13.2559 0.183696 13.2295 0.120107 13.1826 0.0732233C13.1358 0.0263392 13.0722 0 13.0059 0L2.25586 0C1.72543 0 1.21672 0.210714 0.841646 0.585786C0.466573 0.960859 0.255859 1.46957 0.255859 2V22C0.255859 22.5304 0.466573 23.0391 0.841646 23.4142C1.21672 23.7893 1.72543 24 2.25586 24H18.2559C18.7863 24 19.295 23.7893 19.6701 23.4142C20.0451 23.0391 20.2559 22.5304 20.2559 22V7.25C20.2559 7.1837 20.2295 7.12011 20.1826 7.07322C20.1358 7.02634 20.0722 7 20.0059 7ZM7.38086 19C7.38086 19.1658 7.31501 19.3247 7.1978 19.4419C7.08059 19.5592 6.92162 19.625 6.75586 19.625C6.5901 19.625 6.43113 19.5592 6.31392 19.4419C6.19671 19.3247 6.13086 19.1658 6.13086 19V15.982C6.13086 15.871 5.99886 15.911 5.96386 15.982L5.81486 16.282C5.75731 16.379 5.67551 16.4593 5.5775 16.5152C5.47949 16.571 5.36864 16.6003 5.25586 16.6003C5.14307 16.6003 5.03223 16.571 4.93422 16.5152C4.83621 16.4593 4.75441 16.379 4.69686 16.282C4.69686 16.282 4.60386 16.101 4.54886 15.982C4.49386 15.863 4.38086 15.904 4.38086 15.982V19C4.38086 19.1658 4.31501 19.3247 4.1978 19.4419C4.08059 19.5592 3.92162 19.625 3.75586 19.625C3.5901 19.625 3.43113 19.5592 3.31392 19.4419C3.19671 19.3247 3.13086 19.1658 3.13086 19V13C3.13098 12.8593 3.1786 12.7227 3.26602 12.6124C3.35343 12.5021 3.47552 12.4245 3.61251 12.3922C3.7495 12.3599 3.89338 12.3748 4.02085 12.4345C4.14831 12.4942 4.25191 12.5951 4.31486 12.721C4.31486 12.721 5.02586 14.164 5.10086 14.292C5.11626 14.319 5.13843 14.3415 5.16518 14.3574C5.19194 14.3732 5.22235 14.3818 5.25343 14.3823C5.28452 14.3828 5.31519 14.3752 5.34245 14.3602C5.3697 14.3453 5.39259 14.3235 5.40886 14.297L6.19686 12.721C6.25981 12.5951 6.3634 12.4942 6.49087 12.4345C6.61834 12.3748 6.76222 12.3599 6.89921 12.3922C7.0362 12.4245 7.15829 12.5021 7.2457 12.6124C7.33311 12.7227 7.38074 12.8593 7.38086 13V19ZM12.3679 19C12.3679 19.1658 12.302 19.3247 12.1848 19.4419C12.0676 19.5592 11.9086 19.625 11.7429 19.625C11.5771 19.625 11.4181 19.5592 11.3009 19.4419C11.1837 19.3247 11.1179 19.1658 11.1179 19V17.877C11.1179 17.8439 11.1113 17.8111 11.0987 17.7806C11.086 17.75 11.0675 17.7222 11.0441 17.6988C11.0206 17.6754 10.9929 17.6568 10.9623 17.6442C10.9317 17.6315 10.899 17.625 10.8659 17.625H8.75586C8.66475 17.6252 8.57471 17.6054 8.49206 17.5671C8.40941 17.5287 8.33616 17.4728 8.27745 17.4031C8.21874 17.3334 8.176 17.2518 8.15223 17.1638C8.12846 17.0758 8.12424 16.9838 8.13986 16.894C8.30672 15.944 8.69483 15.0466 9.27281 14.2744C9.85079 13.5022 10.6024 12.8769 11.4669 12.449C11.5621 12.4023 11.6677 12.3807 11.7737 12.3861C11.8796 12.3915 11.9824 12.4237 12.0725 12.4799C12.1625 12.536 12.2368 12.6141 12.2883 12.7068C12.3398 12.7996 12.3668 12.9039 12.3669 13.01L12.3679 19ZM17.3809 14.5C17.3772 16.2574 16.8074 17.9669 15.7559 19.375C15.6976 19.4526 15.6222 19.5156 15.5354 19.559C15.4486 19.6024 15.3529 19.625 15.2559 19.625C15.1588 19.625 15.0631 19.6024 14.9764 19.559C14.8896 19.5156 14.8141 19.4526 14.7559 19.375C13.7043 17.9669 13.1345 16.2574 13.1309 14.5V13C13.1309 12.8342 13.1967 12.6753 13.3139 12.5581C13.4311 12.4408 13.5901 12.375 13.7559 12.375C13.9216 12.375 14.0806 12.4408 14.1978 12.5581C14.315 12.6753 14.3809 12.8342 14.3809 13V14.5C14.383 15.5261 14.6132 16.5388 15.0549 17.465C15.1179 17.597 15.3829 17.618 15.4419 17.498C15.8936 16.5623 16.1291 15.537 16.1309 14.498V13C16.1309 12.8342 16.1967 12.6753 16.3139 12.5581C16.4311 12.4408 16.5901 12.375 16.7559 12.375C16.9216 12.375 17.0806 12.4408 17.1978 12.5581C17.315 12.6753 17.3809 12.8342 17.3809 13V14.5Z" fill="#3434FF"/>
<rect x="1.81445" y="11.8408" width="17.1338" height="8.12092" fill="#3434FF"/>
</svg>
