<svg width="23" height="28" viewBox="0 0 23 28" fill="none" xmlns="http://www.w3.org/2000/svg">
<path d="M22.2775 6.44913L16.1573 0.328958C15.945 0.117775 15.6576 -0.000534196 15.3581 1.81341e-06H2.26087C1.66125 1.81341e-06 1.08619 0.2382 0.662193 0.662195C0.238198 1.08619 0 1.66125 0 2.26087V24.8696C0 25.4692 0.238198 26.0443 0.662193 26.4682C1.08619 26.8922 1.66125 27.1304 2.26087 27.1304H20.3478C20.9474 27.1304 21.5225 26.8922 21.9465 26.4682C22.3705 26.0443 22.6087 25.4692 22.6087 24.8696V7.24835C22.6086 6.94857 22.4895 6.66108 22.2775 6.44913V6.44913ZM20.3478 24.3044C20.3478 24.4543 20.2883 24.598 20.1823 24.704C20.0763 24.81 19.9325 24.8696 19.7826 24.8696H2.82609C2.67618 24.8696 2.53242 24.81 2.42642 24.704C2.32042 24.598 2.26087 24.4543 2.26087 24.3044V2.82609C2.26087 2.67618 2.32042 2.53242 2.42642 2.42642C2.53242 2.32042 2.67618 2.26087 2.82609 2.26087H14.413C14.488 2.26087 14.5599 2.29065 14.6129 2.34365C14.6659 2.39665 14.6957 2.46853 14.6957 2.54348V5.65218C14.6957 6.2518 14.9339 6.82686 15.3578 7.25085C15.7818 7.67485 16.3569 7.91305 16.9565 7.91305H20.0652C20.1402 7.91305 20.2121 7.94282 20.2651 7.99582C20.3181 8.04882 20.3478 8.1207 20.3478 8.19566V24.3044Z" fill="#3434FF"/>
<path d="M7.91398 11.8672H5.65311C5.34095 11.8672 5.08789 12.1202 5.08789 12.4324V13.5628C5.08789 13.875 5.34095 14.1281 5.65311 14.1281H7.91398C8.22614 14.1281 8.4792 13.875 8.4792 13.5628V12.4324C8.4792 12.1202 8.22614 11.8672 7.91398 11.8672Z" fill="#3434FF"/>
<path d="M7.91398 15.8237H5.65311C5.34095 15.8237 5.08789 16.0768 5.08789 16.3889V17.5194C5.08789 17.8315 5.34095 18.0846 5.65311 18.0846H7.91398C8.22614 18.0846 8.4792 17.8315 8.4792 17.5194V16.3889C8.4792 16.0768 8.22614 15.8237 7.91398 15.8237Z" fill="#3434FF"/>
<path d="M7.91398 19.7803H5.65311C5.34095 19.7803 5.08789 20.0333 5.08789 20.3455V21.4759C5.08789 21.7881 5.34095 22.0411 5.65311 22.0411H7.91398C8.22614 22.0411 8.4792 21.7881 8.4792 21.4759V20.3455C8.4792 20.0333 8.22614 19.7803 7.91398 19.7803Z" fill="#3434FF"/>
<path d="M16.9564 11.8672H10.739C10.4269 11.8672 10.1738 12.1202 10.1738 12.4324V13.5628C10.1738 13.875 10.4269 14.1281 10.739 14.1281H16.9564C17.2686 14.1281 17.5217 13.875 17.5217 13.5628V12.4324C17.5217 12.1202 17.2686 11.8672 16.9564 11.8672Z" fill="#3434FF"/>
<path d="M16.9564 15.8237H10.739C10.4269 15.8237 10.1738 16.0768 10.1738 16.3889V17.5194C10.1738 17.8315 10.4269 18.0846 10.739 18.0846H16.9564C17.2686 18.0846 17.5217 17.8315 17.5217 17.5194V16.3889C17.5217 16.0768 17.2686 15.8237 16.9564 15.8237Z" fill="#3434FF"/>
<path d="M16.9564 19.7803H10.739C10.4269 19.7803 10.1738 20.0333 10.1738 20.3455V21.4759C10.1738 21.7881 10.4269 22.0411 10.739 22.0411H16.9564C17.2686 22.0411 17.5217 21.7881 17.5217 21.4759V20.3455C17.5217 20.0333 17.2686 19.7803 16.9564 19.7803Z" fill="#3434FF"/>
</svg>
